<svg width="24" height="24" viewBox="0 0 24 24" fill="none" xmlns="http://www.w3.org/2000/svg">
<path d="M9 12C11.2091 12 13 10.2091 13 8C13 5.79086 11.2091 4 9 4C6.79086 4 5 5.79086 5 8C5 10.2091 6.79086 12 9 12Z" stroke="#01A659" stroke-width="1.5" stroke-linecap="round" stroke-linejoin="round"/>
<path d="M3 21V19C3 17.9391 3.42143 16.9217 4.17157 16.1716C4.92172 15.4214 5.93913 15 7 15H11C12.0609 15 13.0783 15.4214 13.8284 16.1716C14.5786 16.9217 15 17.9391 15 19V21" stroke="#01A659" stroke-width="1.5" stroke-linecap="round" stroke-linejoin="round"/>
<path d="M16 4.13C16.8604 4.35031 17.623 4.85071 18.1676 5.55232C18.7122 6.25392 19.0078 7.11683 19.0078 8.005C19.0078 8.89318 18.7122 9.75608 18.1676 10.4577C17.623 11.1593 16.8604 11.6597 16 11.88" stroke="#01A659" stroke-width="1.5" stroke-linecap="round" stroke-linejoin="round"/>
<path d="M21 21V19C20.9949 18.1172 20.6979 17.2608 20.1553 16.5644C19.6126 15.868 18.8548 15.3707 18 15.15" stroke="#01A659" stroke-width="1.5" stroke-linecap="round" stroke-linejoin="round"/>
</svg>
