<svg width="24" height="24" viewBox="0 0 24 24" fill="none" xmlns="http://www.w3.org/2000/svg">
<path d="M14 7.99998C15.1046 7.99998 16 7.10455 16 5.99998C16 4.89542 15.1046 3.99998 14 3.99998C12.8954 3.99998 12 4.89542 12 5.99998C12 7.10455 12.8954 7.99998 14 7.99998Z" stroke="#787885" stroke-width="1.25" stroke-linecap="round" stroke-linejoin="round"/>
<path d="M4 6H12" stroke="#787885" stroke-width="1.25" stroke-linecap="round" stroke-linejoin="round"/>
<path d="M16 6H20" stroke="#787885" stroke-width="1.25" stroke-linecap="round" stroke-linejoin="round"/>
<path d="M8 14C9.10457 14 10 13.1046 10 12C10 10.8954 9.10457 9.99998 8 9.99998C6.89543 9.99998 6 10.8954 6 12C6 13.1046 6.89543 14 8 14Z" stroke="#787885" stroke-width="1.25" stroke-linecap="round" stroke-linejoin="round"/>
<path d="M4 12H6" stroke="#787885" stroke-width="1.25" stroke-linecap="round" stroke-linejoin="round"/>
<path d="M10 12H20" stroke="#787885" stroke-width="1.25" stroke-linecap="round" stroke-linejoin="round"/>
<path d="M17 20C18.1046 20 19 19.1046 19 18C19 16.8954 18.1046 16 17 16C15.8954 16 15 16.8954 15 18C15 19.1046 15.8954 20 17 20Z" stroke="#787885" stroke-width="1.25" stroke-linecap="round" stroke-linejoin="round"/>
<path d="M4 18H15" stroke="#787885" stroke-width="1.25" stroke-linecap="round" stroke-linejoin="round"/>
<path d="M19 18H20" stroke="#787885" stroke-width="1.25" stroke-linecap="round" stroke-linejoin="round"/>
</svg>
