<svg width="26" height="26" viewBox="0 0 26 26" fill="none" xmlns="http://www.w3.org/2000/svg">
<path d="M3.25 3.25L22.75 22.75" stroke="#7FC600" stroke-width="1.5" stroke-linecap="round" stroke-linejoin="round"/>
<path d="M11.466 11.4692C11.0595 11.8755 10.831 12.4266 10.8307 13.0014C10.8305 13.5761 11.0587 14.1274 11.4649 14.534C11.8712 14.9405 12.4223 15.1691 12.9971 15.1693C13.5718 15.1695 14.1231 14.9413 14.5297 14.5351" stroke="#7FC600" stroke-width="1.5" stroke-linecap="round" stroke-linejoin="round"/>
<path d="M18.8034 18.7948C17.0365 19.9864 15.1038 20.5834 13 20.5834C8.66663 20.5834 5.05588 18.0559 2.16663 13C3.64971 10.4054 5.32238 8.47711 7.18463 7.21394M10.1432 5.81211C11.0721 5.54639 12.0338 5.41327 13 5.41669C17.3333 5.41669 20.944 7.94411 23.8333 13C22.9905 14.4744 22.087 15.7344 21.1217 16.7787L10.1432 5.81211Z" stroke="#7FC600" stroke-width="1.5" stroke-linecap="round" stroke-linejoin="round"/>
</svg>
