<svg width="848" height="114" viewBox="0 0 848 114" fill="none" xmlns="http://www.w3.org/2000/svg">
<path fill-rule="evenodd" clip-rule="evenodd" d="M620.01 98.2807V55.159C620.018 61.2281 618.752 67.2301 616.297 72.7705C613.842 78.311 610.253 83.2645 605.765 87.3056V98.2807H620.01ZM605.765 55.159C605.765 60.8518 604.092 66.4167 600.958 71.1501C597.823 75.8835 593.368 79.5727 588.156 81.7512C582.944 83.9297 577.208 84.4997 571.675 83.3891C566.142 82.2785 561.059 79.5372 557.07 75.5118C553.08 71.4864 550.364 66.3577 549.263 60.7743C548.162 55.1909 548.727 49.4036 550.886 44.1441C553.045 38.8847 556.701 34.3893 561.392 31.2266C566.083 28.0639 571.598 26.3758 577.24 26.3758C584.805 26.3758 592.061 29.4083 597.41 34.8062C602.76 40.2041 605.765 47.5252 605.765 55.159ZM577.24 98.2807C585.702 98.2877 593.976 95.7617 601.015 91.0222C608.054 86.2827 613.541 79.5428 616.783 71.6555C620.024 63.7681 620.874 55.0877 619.225 46.7127C617.576 38.3378 613.502 30.6446 607.518 24.6069C601.535 18.5691 593.91 14.4581 585.611 12.794C577.311 11.1299 568.708 11.9875 560.891 15.2584C553.075 18.5292 546.395 24.0663 541.698 31.1688C537.001 38.2714 534.498 46.6203 534.505 55.159C534.496 60.8244 535.595 66.436 537.739 71.672C539.883 76.908 543.031 81.6654 547.001 85.6714C550.971 89.6775 555.686 92.8535 560.875 95.0173C566.064 97.181 571.625 98.29 577.24 98.2807Z" fill="#C7C6C6"/>
<path fill-rule="evenodd" clip-rule="evenodd" d="M449.104 98.2807V87.3056C444.62 83.2616 441.033 78.3076 438.579 72.7677C436.124 67.2279 434.856 61.2274 434.859 55.159V98.2807H449.104ZM477.629 26.3758C483.271 26.3758 488.786 28.0639 493.477 31.2266C498.168 34.3893 501.824 38.8847 503.983 44.1441C506.142 49.4036 506.707 55.1909 505.606 60.7743C504.506 66.3577 501.789 71.4864 497.8 75.5118C493.81 79.5372 488.728 82.2785 483.194 83.3891C477.661 84.4997 471.926 83.9297 466.713 81.7512C461.501 79.5727 457.046 75.8835 453.912 71.1501C450.777 66.4167 449.104 60.8518 449.104 55.159C449.104 47.5558 452.085 40.2613 457.397 34.8685C462.709 29.4757 469.919 26.4225 477.454 26.3758H477.629ZM520.364 55.159C520.371 46.6203 517.868 38.2714 513.171 31.1688C508.474 24.0663 501.795 18.5292 493.978 15.2584C486.161 11.9875 477.559 11.1299 469.259 12.794C460.959 14.4581 453.335 18.5691 447.351 24.6069C441.368 30.6446 437.294 38.3378 435.644 46.7127C433.995 55.0877 434.845 63.7681 438.087 71.6555C441.328 79.5428 446.816 86.2827 453.854 91.0222C460.893 95.7617 469.167 98.2877 477.629 98.2807C488.933 98.2339 499.758 93.6701 507.734 85.5882C515.711 77.5064 520.189 66.565 520.189 55.159H520.364Z" fill="#C7C6C6"/>
<path d="M848 0H833.755V98.2807H848V0Z" fill="#C7C6C6"/>
<path d="M448.93 53.8136H434.685V114H448.93V53.8136Z" fill="#C7C6C6"/>
<path fill-rule="evenodd" clip-rule="evenodd" d="M648.501 98.2807V87.3056C644.013 83.2645 640.424 78.311 637.969 72.7705C635.514 67.2301 634.248 61.2281 634.256 55.159V98.2807H648.501ZM648.501 55.159C648.367 51.2965 649.004 47.4463 650.377 43.838C651.749 40.2297 653.827 36.9372 656.488 34.1569C659.148 31.3765 662.336 29.1653 665.862 27.655C669.387 26.1448 673.178 25.3664 677.008 25.3664C680.839 25.3664 684.63 26.1448 688.155 27.655C691.681 29.1653 694.869 31.3765 697.529 34.1569C700.19 36.9372 702.268 40.2297 703.64 43.838C705.012 47.4463 705.65 51.2965 705.516 55.159V87.3056C711.974 81.4794 716.526 73.8118 718.571 65.3176C720.615 56.8234 720.055 47.9031 716.965 39.7371C713.874 31.5712 708.399 24.5446 701.265 19.5873C694.13 14.63 685.671 11.9757 677.008 11.9757C668.346 11.9757 659.887 14.63 652.752 19.5873C645.617 24.5446 640.143 31.5712 637.052 39.7371C633.962 47.9031 633.402 56.8234 635.446 65.3176C637.491 73.8118 642.043 81.4794 648.501 87.3056V55.159ZM705.516 87.3056V98.2807H719.761V55.159C719.768 61.2281 718.503 67.2301 716.048 72.7705C713.593 78.311 710.004 83.2645 705.516 87.3056Z" fill="#C7C6C6"/>
<path fill-rule="evenodd" clip-rule="evenodd" d="M305.343 47.7062H250.042C249.44 50.0174 249.137 52.397 249.134 54.7869C249.141 57.1765 249.553 59.6619 250.152 61.9739L305.343 61.8676C305.941 59.5557 306.248 57.1765 306.255 54.7869C306.252 52.397 305.945 50.0174 305.343 47.7062ZM277.765 26.1099C285.324 26.1193 292.571 29.1559 297.912 34.5528C303.254 39.9497 306.254 47.2592 306.254 54.8868C306.248 57.2765 305.941 59.5557 305.343 61.8676L319.903 61.9739C320.292 59.6338 320.492 57.2658 320.5 54.8931C320.664 49.124 319.679 43.3803 317.604 38.0019C315.529 32.6235 312.406 27.7197 308.42 23.5806C304.434 19.4415 299.666 16.1512 294.397 13.9044C289.129 11.6576 283.467 10.5 277.747 10.5C272.027 10.5 266.366 11.6576 261.097 13.9044C255.829 16.1512 251.06 19.4415 247.074 23.5806C243.088 27.7197 239.965 32.6235 237.89 38.0019C235.815 43.3803 234.831 49.124 234.995 54.8931C235.003 57.2658 235.202 59.6338 235.591 61.9739H250.152C249.553 59.6619 249.141 57.1765 249.134 54.7869C249.134 47.1715 252.23 39.9726 257.557 34.5778C262.884 29.1829 270.112 26.138 277.66 26.1099H277.765ZM277.765 83.6409C271.445 83.641 265.305 81.5237 260.307 77.6213C255.31 73.719 251.738 68.1463 250.152 61.9739H235.591C237.065 70.725 241.073 78.9108 247.263 85.2177C253.454 91.5245 261.421 95.7518 270.079 97.3234C278.737 98.8949 287.665 97.7343 295.646 93.9997C303.626 90.2651 310.271 84.1382 314.676 76.454H296.501C291.301 81.0904 284.599 83.6467 277.66 83.6409H277.765Z" fill="#A31E80"/>
<path fill-rule="evenodd" clip-rule="evenodd" d="M803.883 47.7062H748.583C747.98 50.0174 747.678 52.397 747.675 54.7869C747.682 57.1765 748.094 59.6619 748.692 61.9739L803.883 61.8676C804.482 59.5557 804.789 57.1765 804.795 54.7869C804.792 52.397 804.486 50.0174 803.883 47.7062ZM776.305 26.1099C783.865 26.1193 791.111 29.1559 796.453 34.5528C801.795 39.9497 804.795 47.2592 804.795 54.8868C804.788 57.2765 804.482 59.5557 803.883 61.8676L818.444 61.9739C818.833 59.6338 819.032 57.2658 819.04 54.8931C819.204 49.124 818.22 43.3803 816.145 38.0019C814.07 32.6235 810.947 27.7197 806.961 23.5806C802.975 19.4415 798.206 16.1512 792.938 13.9044C787.669 11.6576 782.008 10.5 776.288 10.5C770.568 10.5 764.906 11.6576 759.638 13.9044C754.369 16.1512 749.601 19.4415 745.615 23.5806C741.629 27.7197 738.506 32.6235 736.431 38.0019C734.356 43.3803 733.371 49.124 733.535 54.8931C733.543 57.2658 733.743 59.6338 734.132 61.9739H748.692C748.094 59.6619 747.682 57.1765 747.675 54.7869C747.675 47.1715 750.771 39.9726 756.098 34.5778C761.424 29.1829 768.653 26.138 776.2 26.1099H776.305ZM776.305 83.6409C769.986 83.641 763.846 81.5237 758.848 77.6213C753.85 73.719 750.278 68.1463 748.692 61.9739H734.132C735.606 70.725 739.613 78.9108 745.804 85.2177C751.994 91.5245 759.961 95.7518 768.62 97.3234C777.278 98.8949 786.205 97.7343 794.186 93.9997C802.167 90.2651 808.812 84.1382 813.216 76.454H795.041C789.841 81.0904 783.139 83.6467 776.2 83.6409H776.305Z" fill="#C7C6C6"/>
<path fill-rule="evenodd" clip-rule="evenodd" d="M348.793 55.159C348.786 49.4647 350.453 43.8962 353.583 39.1582C356.713 34.4202 361.166 30.7255 366.378 28.5415C371.589 26.3575 377.326 25.7825 382.861 26.8891C388.397 27.9957 393.483 30.7342 397.476 34.7582C401.469 38.7822 404.189 43.9108 405.292 49.4952C406.396 55.0795 405.833 60.8687 403.675 66.1302C401.517 71.3917 397.861 75.8891 393.169 79.0535C388.478 82.2178 382.961 83.9068 377.318 83.9068C369.759 83.9068 362.509 80.8791 357.16 75.4889C351.812 70.0986 348.802 62.7866 348.793 55.159ZM377.318 12.0018C368.857 11.9948 360.585 14.52 353.547 19.2579C346.508 23.9958 341.021 30.7336 337.778 38.6189C334.536 46.5042 333.684 55.1828 335.33 63.5568C336.977 71.9308 341.047 79.6239 347.027 85.6631C353.008 91.7023 360.628 95.8161 368.926 97.4842C377.223 99.1523 385.825 98.2997 393.642 95.0343C401.459 91.7689 408.141 86.2374 412.843 79.1394C417.544 72.0415 420.053 63.6961 420.053 55.159C420.053 43.7191 415.552 32.7473 407.538 24.6548C399.525 16.5622 388.655 12.0112 377.318 12.0018Z" fill="#A31E80"/>
<path fill-rule="evenodd" clip-rule="evenodd" d="M28.4199 1.69931H0V30.3763H28.4199V1.69931ZM99.3994 16.0378H62.5588C60.9799 16.0378 59.4361 16.0378 57.8923 16.2502C55.6126 16.4928 53.3507 16.8831 51.1207 17.4186C48.5783 18.0534 46.0909 18.894 43.6824 19.9322C42.3842 20.4987 41.1211 21.1006 39.8931 21.7732C36.076 23.817 32.5379 26.3518 29.3672 29.3142L28.3146 30.3763C20.8941 37.8262 16.0681 47.5034 14.5608 57.9558C14.2494 60.2079 14.097 62.4795 14.1047 64.7533V102.069H51.1207C53.386 102.049 55.6478 101.883 57.8923 101.573C65.7286 100.429 73.1643 97.3528 79.5406 92.6161C81.9785 90.8404 84.2351 88.8243 86.2771 86.5974C89.223 83.4063 91.7361 79.8348 93.7505 75.9763C94.4171 74.7372 95.0136 73.4627 95.575 72.1527C96.6518 69.7594 97.5433 67.2856 98.2415 64.7533C98.7775 62.5177 99.1527 60.246 99.3643 57.9558C99.3643 56.3981 99.5748 54.8403 99.5748 53.2471L99.3994 16.0378ZM28.4199 30.3763H56.8047V59.0179H28.4199V30.3763Z" fill="#A31E80"/>
<path fill-rule="evenodd" clip-rule="evenodd" d="M149.29 98.2807V87.3056C144.803 83.2645 141.214 78.311 138.759 72.7705C136.303 67.2301 135.038 61.2281 135.045 55.159V98.2807H149.29ZM149.29 55.159C149.156 51.2965 149.794 47.4463 151.166 43.838C152.538 40.2297 154.617 36.9372 157.277 34.1569C159.937 31.3765 163.126 29.1653 166.651 27.655C170.177 26.1448 173.968 25.3664 177.798 25.3664C181.628 25.3664 185.419 26.1448 188.945 27.655C192.47 29.1653 195.658 31.3765 198.319 34.1569C200.979 36.9372 203.058 40.2297 204.43 43.838C205.802 47.4463 206.44 51.2965 206.306 55.159V87.3056C212.763 81.4794 217.316 73.8118 219.36 65.3176C221.404 56.8234 220.844 47.9031 217.754 39.7371C214.664 31.5712 209.189 24.5446 202.054 19.5873C194.919 14.63 186.461 11.9757 177.798 11.9757C169.135 11.9757 160.677 14.63 153.542 19.5873C146.407 24.5446 140.932 31.5712 137.842 39.7371C134.752 47.9031 134.192 56.8234 136.236 65.3176C138.28 73.8118 142.833 81.4794 149.29 87.3056V55.159ZM206.306 87.3056V98.2807H220.551V55.159C220.558 61.2281 219.292 67.2301 216.837 72.7705C214.382 78.311 210.793 83.2645 206.306 87.3056Z" fill="#A31E80"/>
</svg>
